# xmcd
#
# Track frame offsets:
#	150
#	18859
#	37535
#	61234
#	79915
#	99754
#	122819
#	147059
#	164914
#	185860
#	214247
#	236067
#
# Disc length: 3444 seconds
#
# Revision: 1
# Processed by: cddbd v1.5.2PL0 Copyright (c) Steve Scherf et al.
# Submitted via: EZCDAudioConverter 8.0.2.1
#
DISCID=9f0d720c
DTITLE=Đức Tuấn - Anh Yêu Em
DYEAR=2004
DGENRE=Miscellaneous
TTITLE0=Vườn tình
TTITLE1=Hoài niệm chiều mưa
TTITLE2=Bỏ lại phía sau
TTITLE3=Cho tình yêu quay về
TTITLE4=Một ngày chỉ mong
TTITLE5=Anh Yêu Em
TTITLE6=Chúc ngủ ngon
TTITLE7=Tình buồn xa vắng
TTITLE8=Mưa rơi
TTITLE9=Cám ơn mùa thu
TTITLE10=Tears In The Rain
TTITLE11=Bye Goodnight
EXTD=
EXTT0=
EXTT1=
EXTT2=
EXTT3=
EXTT4=
EXTT5=
EXTT6=
EXTT7=
EXTT8=
EXTT9=
EXTT10=
EXTT11=
PLAYORDER=
